<?xml version="1.0" standalone="no"?>
<!DOCTYPE svg PUBLIC "-//W3C//DTD SVG 20010904//EN"
 "http://www.w3.org/TR/2001/REC-SVG-20010904/DTD/svg10.dtd">
<svg version="1.0" xmlns="http://www.w3.org/2000/svg"
 width="16.000000pt" height="16.000000pt" viewBox="0 0 16.000000 16.000000"
 preserveAspectRatio="xMidYMid meet">
<metadata>
Created by potrace 1.11, written by Peter Selinger 2001-2013
</metadata>
<g transform="translate(0.000000,16.000000) scale(0.006250,-0.006250)"
fill="#000000" stroke="none">
<path d="M1610 2547 c0 -7 6 -19 12 -25 10 -10 10 -15 -2 -22 -12 -8 -12 -14
3 -44 13 -29 14 -38 4 -48 -9 -8 -14 -44 -14 -101 -1 -49 -4 -91 -7 -94 -3 -3
1 -18 9 -34 22 -41 19 -121 -4 -148 -11 -13 -17 -30 -14 -42 3 -11 0 -38 -7
-60 -10 -28 -10 -45 -3 -62 7 -15 8 -29 1 -40 -14 -25 -30 -115 -28 -163 1
-61 -18 -72 -75 -43 -26 13 -54 36 -63 52 -22 38 -79 66 -144 72 -29 3 -71 11
-93 16 -39 11 -115 13 -182 5 -48 -5 -49 -6 -37 -14 7 -4 -30 -8 -82 -8 -70
-1 -100 -6 -120 -18 -14 -10 -36 -19 -48 -20 -13 -1 -36 -12 -51 -24 -15 -12
-34 -22 -41 -22 -7 0 -21 -11 -29 -24 -21 -32 -59 -41 -90 -20 -26 17 -31 16
-80 -15 -16 -11 -37 -20 -46 -20 -9 -1 -31 -9 -49 -18 -24 -12 -35 -13 -38 -5
-5 17 -27 15 -42 -3 -11 -13 -15 -13 -41 1 -16 8 -29 20 -29 26 0 7 -21 31
-47 55 -41 36 -54 43 -90 43 l-43 0 0 -320 c0 -176 4 -320 8 -320 12 0 63 40
116 90 25 24 53 48 61 53 8 4 31 43 51 85 20 42 38 79 40 82 19 18 174 1 174
-20 0 -5 6 -15 13 -22 17 -18 79 -245 73 -266 -3 -10 1 -74 9 -144 13 -112 18
-132 46 -172 17 -25 34 -46 39 -46 11 0 19 -49 13 -87 -4 -23 -11 -33 -24 -33
-17 0 -32 -12 -130 -103 -22 -20 -47 -37 -54 -37 -23 0 -109 -31 -125 -45 -25
-22 -76 -22 -99 -1 -12 11 -21 25 -21 33 0 15 -56 18 -65 3 -3 -6 -16 -10 -27
-10 -11 0 -38 -5 -59 -12 -33 -9 -39 -15 -39 -38 0 -15 7 -33 15 -40 8 -7 15
-21 15 -31 0 -11 6 -19 13 -20 6 0 0 -5 -15 -11 -25 -9 -28 -15 -28 -54 0 -41
3 -46 30 -56 19 -6 45 -32 72 -69 48 -69 48 -69 112 31 70 108 120 132 247
119 113 -11 130 -23 181 -128 l43 -90 52 -1 c48 0 53 3 82 39 33 41 81 69 135
78 29 4 80 -12 148 -48 10 -5 25 -6 34 -2 9 3 20 0 24 -8 5 -7 13 -10 17 -5 4
5 1 13 -8 19 -15 9 -14 14 7 53 15 26 20 45 14 49 -6 3 -10 16 -10 29 0 24
-28 56 -48 56 -7 0 -12 5 -12 10 0 6 -9 10 -19 10 -11 0 -22 4 -25 9 -3 4 -20
11 -37 15 -24 5 -29 9 -21 19 16 19 1 35 -31 34 -24 -2 -27 -6 -27 -40 0 -32
-3 -37 -17 -33 -10 3 -30 8 -44 11 -36 9 -65 51 -73 107 -8 54 0 63 51 53 29
-5 34 -10 30 -27 -6 -20 -5 -20 11 -4 15 15 15 19 2 29 -14 12 -26 31 -67 112
-9 17 -20 37 -24 45 -5 8 -18 34 -29 58 -11 23 -24 42 -29 42 -5 0 -16 18 -25
40 -9 23 -23 43 -31 46 -8 4 -18 24 -21 45 -4 23 -12 39 -20 39 -9 0 -14 13
-15 38 0 20 -2 52 -3 70 -4 31 15 45 29 23 3 -5 20 -13 38 -17 17 -3 52 -17
77 -29 89 -46 125 -62 152 -68 15 -4 40 -12 55 -19 34 -14 29 -12 84 -21 25
-4 85 -2 135 4 49 7 110 12 137 11 26 -1 47 3 47 8 0 6 6 10 13 10 7 0 23 10
34 22 11 13 30 30 41 38 12 8 22 20 22 26 0 7 6 14 13 17 7 2 12 23 13 53 2
84 2 84 29 84 14 0 25 5 25 10 0 6 7 10 15 10 8 0 15 6 15 14 0 8 7 17 16 20
8 3 13 10 9 16 -3 5 7 21 23 35 26 23 29 31 26 78 -1 29 0 39 3 22 l5 -30 14
35 c10 23 11 36 4 38 -13 5 -13 32 0 32 6 0 10 7 10 16 0 13 -3 14 -15 4 -11
-9 -17 -9 -29 2 -20 21 -6 86 28 131 15 19 30 51 33 71 6 41 18 42 45 5 15
-20 17 -31 9 -51 -12 -31 -4 -68 15 -68 8 0 14 -9 14 -19 0 -11 4 -22 9 -25 5
-3 12 -18 15 -32 4 -15 14 -33 21 -41 18 -17 22 -199 5 -205 -5 -1 -12 -45
-14 -96 -2 -51 -9 -99 -15 -106 -15 -18 -3 -66 15 -66 8 0 14 -10 14 -25 0
-16 -6 -25 -15 -25 -11 0 -15 -11 -15 -37 0 -33 -1 -35 -13 -19 -12 16 -16 10
-35 -55 -11 -41 -26 -93 -32 -116 -6 -24 -15 -43 -20 -43 -5 0 -5 -13 0 -32
12 -39 4 -70 -32 -132 -16 -27 -32 -61 -35 -77 -3 -16 -9 -26 -14 -24 -4 3
-11 1 -14 -5 -4 -7 -11 -8 -18 -1 -11 8 -41 15 -61 12 -5 0 -3 -7 3 -15 9 -10
5 -21 -19 -46 -29 -31 -32 -32 -58 -19 -15 7 -30 15 -34 17 -5 2 -8 -1 -8 -7
0 -23 -41 -52 -63 -46 -17 5 -18 4 -8 -4 12 -8 10 -11 -12 -16 -15 -4 -24 -11
-21 -17 3 -5 -2 -18 -11 -28 -15 -17 -15 -19 5 -33 27 -19 9 -33 -19 -15 -17
10 -24 9 -46 -12 -13 -13 -23 -26 -20 -28 3 -3 -5 -10 -18 -16 -13 -7 -23 -23
-25 -39 l-3 -27 98 0 c82 0 102 4 123 20 32 25 72 25 95 0 18 -19 31 -20 482
-20 387 0 463 2 463 14 0 7 -7 19 -15 26 -8 7 -15 19 -15 27 0 8 -4 12 -9 9
-8 -6 -25 30 -22 48 1 4 -4 15 -11 23 -11 14 -10 15 12 9 14 -4 20 -4 13 1
-12 9 -13 63 0 63 4 0 7 11 7 25 0 14 7 28 15 31 23 9 19 44 -6 44 -17 0 -20
5 -17 37 2 27 8 39 21 41 12 2 17 -3 17 -17 0 -18 6 -21 40 -21 l40 0 0 460
c0 402 -2 460 -15 460 -17 0 -20 -16 -4 -25 7 -5 6 -12 -4 -23 -8 -10 -17 -34
-21 -54 -6 -35 -46 -88 -65 -88 -5 0 -9 -15 -8 -34 1 -37 -19 -70 -38 -62 -9
3 -11 -8 -7 -39 4 -38 2 -44 -18 -50 -13 -4 -19 -12 -16 -22 3 -8 -1 -27 -9
-43 -20 -39 -20 -40 17 -40 29 0 30 -1 15 -18 -10 -10 -17 -28 -17 -40 0 -19
-2 -21 -20 -10 -31 19 -35 1 -11 -42 23 -42 22 -74 -4 -84 -8 -3 -15 -15 -15
-26 0 -17 -6 -20 -39 -20 -33 0 -40 -4 -43 -22 l-3 -23 -20 23 c-11 12 -27 22
-37 22 -11 0 -18 8 -18 20 0 19 -5 21 -60 18 -45 -2 -63 1 -76 14 -16 16 -18
16 -32 0 -10 -12 -10 -10 1 9 14 23 14 29 1 48 -22 30 -24 102 -5 125 9 11 11
16 5 13 -21 -12 -23 20 -6 94 9 41 16 102 16 137 -1 60 0 63 20 58 19 -5 24 3
44 72 25 83 38 182 25 182 -5 0 -26 -18 -46 -41 -33 -36 -60 -48 -58 -26 1 4
1 16 1 27 0 12 10 25 24 31 14 7 27 22 31 36 3 13 9 21 14 19 16 -10 33 23 34
70 2 44 0 47 -29 58 -23 8 -29 15 -24 26 13 24 29 107 44 220 19 142 18 134
20 231 1 47 6 91 10 97 4 7 2 19 -4 27 -8 9 -8 20 -2 31 6 10 4 29 -4 53 -13
37 -17 74 -29 226 -3 44 -8 90 -11 103 l-4 22 -225 0 c-178 0 -225 -3 -225
-13z m100 -503 c0 -8 -5 -12 -10 -9 -6 4 -8 11 -5 16 9 14 15 11 15 -7z m-95
-114 c3 -5 1 -10 -4 -10 -6 0 -11 5 -11 10 0 6 2 10 4 10 3 0 8 -4 11 -10z
m192 -246 c-9 -9 -28 6 -21 18 4 6 10 6 17 -1 6 -6 8 -13 4 -17z m90 -531 c-3
-10 -5 -4 -5 12 0 17 2 24 5 18 2 -7 2 -21 0 -30z m0 -189 c-3 -3 -12 -4 -19
-1 -8 3 -5 6 6 6 11 1 17 -2 13 -5z m544 -454 c28 0 39 -4 39 -15 0 -11 -11
-15 -40 -15 l-40 0 0 -51 c0 -43 -3 -50 -17 -47 -14 2 -19 15 -21 51 -2 36 -7
47 -20 47 -11 0 -6 10 19 36 31 32 34 33 37 15 3 -17 11 -21 43 -21z m-80
-296 c5 -15 8 -29 5 -31 -2 -2 -8 10 -14 26 -13 38 -5 41 9 5z m34 16 c3 -5 1
-10 -4 -10 -6 0 -11 5 -11 10 0 6 2 10 4 10 3 0 8 -4 11 -10z m2 -66 c-3 -3
-12 -4 -19 -1 -8 3 -5 6 6 6 11 1 17 -2 13 -5z"/>
<path d="M1760 1595 c0 -15 4 -24 10 -20 6 3 10 12 10 20 0 8 -4 17 -10 20 -6
4 -10 -5 -10 -20z"/>
<path d="M1745 1530 c-4 -6 3 -10 14 -10 25 0 27 6 6 13 -8 4 -17 2 -20 -3z"/>
<path d="M1724 1479 c-3 -6 -2 -15 4 -21 6 -6 11 -2 15 11 5 22 -7 29 -19 10z"/>
<path d="M2290 670 l-25 -25 23 -3 c30 -4 34 0 30 30 l-3 23 -25 -25z"/>
<path d="M939 404 c-10 -13 -10 -17 2 -25 22 -14 27 -11 21 16 -5 29 -6 30
-23 9z"/>
<path d="M2540 280 c0 -5 5 -10 10 -10 6 0 10 5 10 10 0 6 -4 10 -10 10 -5 0
-10 -4 -10 -10z"/>
<path d="M1201 134 c0 -11 3 -14 6 -6 3 7 2 16 -1 19 -3 4 -6 -2 -5 -13z"/>
<path d="M2455 129 c-4 -6 -5 -12 -2 -15 2 -3 7 2 10 11 7 17 1 20 -8 4z"/>
</g>
</svg>
